<svg width="19" height="19" viewBox="0 0 19 19" fill="none" xmlns="http://www.w3.org/2000/svg">
<g clip-path="url(#clip0_422_49)">
<path d="M9.49992 15.8334C11.1796 15.8334 12.7905 15.1661 13.9783 13.9784C15.166 12.7907 15.8333 11.1797 15.8333 9.50004C15.8333 7.82034 15.166 6.20943 13.9783 5.0217C12.7905 3.83397 11.1796 3.16671 9.49992 3.16671C7.82021 3.16671 6.20931 3.83397 5.02158 5.0217C3.83385 6.20943 3.16659 7.82034 3.16659 9.50004C3.16659 11.1797 3.83385 12.7907 5.02158 13.9784C6.20931 15.1661 7.82021 15.8334 9.49992 15.8334ZM9.49992 17.4167C5.12754 17.4167 1.58325 13.8724 1.58325 9.50004C1.58325 5.12767 5.12754 1.58337 9.49992 1.58337C13.8723 1.58337 17.4166 5.12767 17.4166 9.50004C17.4166 13.8724 13.8723 17.4167 9.49992 17.4167ZM7.03784 10.4263L5.06025 9.80958C4.63275 9.67896 4.63038 9.38446 5.15604 9.17308L12.8613 6.19642C13.3086 6.01433 13.562 6.24471 13.4171 6.82183L12.1053 13.0127C12.0135 13.4536 11.7483 13.5589 11.3801 13.3555L9.36059 11.8608L8.41929 12.7696C8.32271 12.863 8.24434 12.943 8.0955 12.9628C7.94746 12.9834 7.82554 12.939 7.73609 12.6936L7.04734 10.4207L7.03784 10.4263Z" fill="#E0BEA2"/>
</g>
<defs>
<clipPath id="clip0_422_49">
<rect width="19" height="19" fill="white"/>
</clipPath>
</defs>
</svg>
